Coordinates
version=1
nRows=17
nColumns=40
inDegrees=yes

Units are S.I. units (second, meters, Newtons, ...)
Angles are in degrees.

endheader
time	pelvis_tilt	pelvis_list	pelvis_rotation	pelvis_tx	pelvis_ty	pelvis_tz	hip_flexion_r	hip_adduction_r	hip_rotation_r	knee_angle_r	knee_angle_r_beta	ankle_angle_r	subtalar_angle_r	mtp_angle_r	hip_flexion_l	hip_adduction_l	hip_rotation_l	knee_angle_l	knee_angle_l_beta	ankle_angle_l	subtalar_angle_l	mtp_angle_l	lumbar_extension	lumbar_bending	lumbar_rotation	arm_flex_r	arm_add_r	arm_rot_r	elbow_flex_r	pro_sup_r	wrist_flex_r	wrist_dev_r	arm_flex_l	arm_add_l	arm_rot_l	elbow_flex_l	pro_sup_l	wrist_flex_l	wrist_dev_l
      0.00000000	     -1.65563741	     -2.36996660	    -11.96206805	     -1.41027713	      0.88093135	      1.37357778	     25.18661535	     -4.81279448	     -7.05515250	    -57.82267576	     -1.00919607	      2.43633824	    -15.94107535	     19.08077343	      8.00880212	     -3.61811146	      9.88618704	    -25.93127377	     -0.45258611	     15.11469878	      8.29267806	     -4.01788522	     -4.86281372	     -0.74181027	     -8.69159133	     -7.78996664	     -8.44014357	    -11.87712188	     25.90583426	     89.95437384	      0.00000000	      0.00000000	      6.01950292	     10.64549796	      6.63556401	     41.12783033	     89.95437384	      0.00000000	      0.00000000
      0.01000000	     -1.98021460	     -2.16995619	    -11.32124590	     -1.40327584	      0.88031766	      1.37522873	     26.30789500	     -5.04758810	     -6.89220866	    -55.83907286	     -0.97457567	      2.74224249	    -15.68990480	     18.75231516	      7.82158311	     -3.68148197	      9.88288726	    -25.74243118	     -0.44929018	     15.24708709	      7.94860672	     -4.00082467	     -4.58651757	     -0.80175016	     -8.81445296	     -7.99834502	     -8.49084604	    -11.88945189	     26.01935345	     89.95437384	      0.00000000	      0.00000000	      6.44341985	     10.73053518	      6.36864192	     41.79289017	     89.95437384	      0.00000000	      0.00000000
      0.02000000	     -2.00460076	     -2.38465998	    -10.62979973	     -1.39610586	      0.88046459	      1.37725978	     26.72723061	     -4.69477325	     -6.65971475	    -53.36737540	     -0.93143641	      3.06623398	    -15.90274847	     18.67089813	      6.97172865	     -3.43903245	      9.14971229	    -25.16903194	     -0.43928248	     15.49081809	      7.28523692	     -4.09788947	     -4.72752258	     -0.50612704	     -8.95558659	     -7.97182437	     -8.45953799	    -12.16801011	     25.80818424	     89.95437384	      0.00000000	      0.00000000	      6.90284359	     11.08961898	      5.30505443	     42.48309107	     89.95437384	      0.00000000	      0.00000000
      0.03000000	     -1.93419522	     -2.50501359	     -9.81182000	     -1.38861679	      0.88066741	      1.37897633	     26.95872434	     -4.75276319	     -6.92248364	    -50.83814695	     -0.88729305	      3.31742267	    -15.64393226	     18.53853126	      6.15535050	     -3.18300384	      9.03309642	    -24.78922242	     -0.43265355	     15.43634533	      6.42512994	     -4.22889753	     -4.95725255	     -0.28276816	     -9.17575368	     -8.12533247	     -8.42819978	    -12.55495030	     25.94724276	     89.95437384	      0.00000000	      0.00000000	      7.38131173	     11.31744041	      4.51700570	     43.11953131	     89.95437384	      0.00000000	      0.00000000
      0.04000000	     -2.31520458	     -2.15329183	     -9.26063290	     -1.38139226	      0.87986632	      1.38071970	     27.98988823	     -5.15456788	     -6.87438661	    -48.49988038	     -0.84648260	      3.45148074	    -15.10889686	     18.24853064	      6.03527615	     -3.34400066	      9.20822810	    -24.63822083	     -0.43001808	     15.40102029	      6.03221900	     -4.22030560	     -4.57562834	     -0.49867340	     -9.26317037	     -8.32674252	     -8.45585863	    -12.52545681	     26.09953290	     89.95437384	      0.00000000	      0.00000000	      7.79383914	     11.43266674	      4.14538268	     43.62501505	     89.95437384	      0.00000000	      0.00000000
      0.05000000	     -2.08480016	     -2.39918233	     -8.66216009	     -1.37356224	      0.88042064	      1.38298147	     27.86620874	     -4.88392542	     -6.86315215	    -45.67951133	     -0.79725787	      3.76930140	    -14.54622968	     18.09482726	      4.88798067	     -2.87589478	      9.37265126	    -24.10369180	     -0.42068878	     15.07833757	      4.39513609	     -4.56781552	     -4.93532830	     -0.18529393	     -9.18285430	     -8.43657878	     -8.40725854	    -12.98634642	     26.12316202	     89.95437384	      0.00000000	      0.00000000	      8.35164433	     11.77340076	      2.80099297	     44.07657791	     89.95437384	      0.00000000	      0.00000000
      0.06000000	     -2.54924005	     -2.03186777	     -8.15105008	     -1.36638033	      0.87946400	      1.38468346	     28.92658770	     -5.30472349	     -6.91867935	    -43.32105329	     -0.75609502	      3.99632911	    -13.94972247	     17.81351865	      4.84059001	     -3.05746665	      9.53505783	    -23.91870001	     -0.41746007	     15.09398581	      4.04026323	     -4.57390165	     -4.45832817	     -0.39800001	     -9.23515693	     -8.58260318	     -8.43457531	    -12.91682773	     26.23673204	     89.95437384	      0.00000000	      0.00000000	      8.74963790	     11.86884011	      2.38561741	     44.50940574	     89.95437384	      0.00000000	      0.00000000
      0.07000000	     -2.80540497	     -2.10697273	     -7.51092671	     -1.35926867	      0.87917872	      1.38664752	     29.36994806	     -5.20423982	     -7.02454788	    -40.51043756	     -0.70704052	      4.34488318	    -12.86953266	     17.47970632	      4.45762589	     -2.78899478	      9.16222937	    -23.62652072	     -0.41236058	     14.87504455	      3.09756815	     -4.72898230	     -4.28994460	     -0.17155820	     -9.28815296	     -8.55443541	     -8.43486903	    -13.02042411	     26.05585541	     89.95437384	      0.00000000	      0.00000000	      9.33438780	     12.16911249	      1.19978673	     44.76596298	     89.95437384	      0.00000000	      0.00000000
      0.08000000	     -2.61721145	     -2.14846633	     -7.04091750	     -1.35127738	      0.87940781	      1.38883313	     29.22805277	     -5.23992600	     -7.38035034	    -37.70852357	     -0.65813789	      4.82052911	    -11.71597832	     16.97545198	      3.53005667	     -2.41595884	     10.00880849	    -23.36969368	     -0.40787810	     14.47661851	      1.37943241	     -5.29840347	     -4.56250162	     -0.03776073	     -9.17617270	     -8.66798233	     -8.41177055	    -13.36308376	     26.21841979	     89.95437384	      0.00000000	      0.00000000	      9.92397837	     12.26178639	      0.50331429	     44.95157431	     89.95437384	      0.00000000	      0.00000000
      0.09000000	     -3.06074185	     -1.91499030	     -6.52274320	     -1.34404441	      0.87844597	      1.39079102	     29.94313508	     -5.47092437	     -7.61949536	    -35.12691826	     -0.61308038	      4.97917874	    -10.96048437	     16.75518856	      3.48228313	     -2.45790578	      9.93950345	    -23.27281438	     -0.40618724	     14.47811829	      1.01852755	     -5.37715361	     -4.14594529	     -0.13788423	     -9.25658413	     -8.70937516	     -8.42431193	    -13.32282185	     26.24861157	     89.95437384	      0.00000000	      0.00000000	     10.30168186	     12.37516219	      0.12776947	     45.29186037	     89.95437384	      0.00000000	      0.00000000
      0.10000000	     -3.21754544	     -1.94643110	     -5.96812331	     -1.33648004	      0.87801598	      1.39276716	     30.14683245	     -5.54052782	     -8.33974378	    -32.48531605	     -0.56697572	      5.21156427	     -9.94002232	     16.46377395	      3.12391078	     -2.20838699	      9.86887367	    -23.31073491	     -0.40684908	     14.34879744	      0.44388906	     -5.55403570	     -4.06904544	      0.04503107	     -9.29343451	     -8.65559071	     -8.44497755	    -13.42129698	     26.17858698	     89.95437384	      0.00000000	      0.00000000	     10.76191523	     12.46417995	     -0.42614841	     45.50986647	     89.95437384	      0.00000000	      0.00000000
      0.11000000	     -3.08157611	     -2.07475354	     -5.42666647	     -1.32831064	      0.87797128	      1.39503303	     29.90816235	     -5.60464369	     -9.57940463	    -29.91285839	     -0.52207787	      5.59409612	     -8.55155032	     15.92670041	      2.40583183	     -1.72839952	     10.31485720	    -23.44539839	     -0.40919940	     14.09304369	     -0.66750859	     -6.01801174	     -4.28420075	      0.29431417	     -9.32239236	     -8.64767786	     -8.43537561	    -13.63466758	     26.19829105	     89.95437384	      0.00000000	      0.00000000	     11.11678740	     12.44539791	     -0.59355402	     45.74732355	     89.95437384	      0.00000000	      0.00000000
      0.12000000	     -3.38752815	     -1.87906085	     -5.07615501	     -1.32074460	      0.87717388	      1.39730006	     30.42857980	     -5.75157022	    -10.05600049	    -27.80696639	     -0.48532312	      5.66717637	     -7.86212935	     15.72126242	      2.20963592	     -1.72969298	     10.24260987	    -23.39206040	     -0.40826847	     13.84270680	     -1.00284743	     -6.08347140	     -4.00713552	      0.22905547	     -9.29141562	     -8.57764454	     -8.44470258	    -13.61264140	     26.17164075	     89.95437384	      0.00000000	      0.00000000	     11.45954139	     12.43360077	     -0.70476179	     45.85834647	     89.95437384	      0.00000000	      0.00000000
      0.13000000	     -3.37248442	     -1.89016609	     -4.70044035	     -1.31263535	      0.87685733	      1.39978699	     30.43271765	     -5.73980466	    -11.05821810	    -25.80527958	     -0.45038709	      5.89867517	     -7.07537009	     15.44585407	      1.67458195	     -1.48676804	     10.18211597	    -23.51942966	     -0.41049149	     13.72865659	     -1.40047895	     -6.23352214	     -4.06808762	      0.34140174	     -9.19099639	     -8.47967589	     -8.45139310	    -13.67520053	     26.04303852	     89.95437384	      0.00000000	      0.00000000	     11.78479145	     12.38102035	     -0.79620762	     45.99395546	     89.95437384	      0.00000000	      0.00000000
      0.14000000	     -3.30698981	     -1.94905073	     -4.23682406	     -1.30439696	      0.87660080	      1.40216220	     30.33626618	     -5.74617658	    -12.41433318	    -24.03438469	     -0.41947915	      6.08732905	     -6.17539665	     15.09757768	      1.07250422	     -1.14360137	     10.17046292	    -23.62967407	     -0.41241561	     13.55364058	     -2.05099217	     -6.47350862	     -4.17260254	      0.52578566	     -9.24098755	     -8.33185120	     -8.45455023	    -13.84407958	     25.93055316	     89.95437384	      0.00000000	      0.00000000	     12.04520133	     12.31387103	     -0.73205420	     46.05698484	     89.95437384	      0.00000000	      0.00000000
      0.15000000	     -3.20096121	     -2.07078758	     -3.64398236	     -1.29623749	      0.87629956	      1.40428666	     30.27410088	     -5.85873058	    -14.23917835	    -22.80046270	     -0.39794315	      6.35086977	     -4.53286609	     13.66561225	      0.58016780	     -0.63400309	     10.32271957	    -23.97955585	     -0.41852220	     13.14824059	     -3.33656414	     -7.31463820	     -4.35020338	      0.78977006	     -9.43300806	     -8.16378497	     -8.46422491	    -13.92678334	     25.89668865	     89.95437384	      0.00000000	      0.00000000	     12.29929996	     12.22718717	     -0.65989926	     46.16122442	     89.95437384	      0.00000000	      0.00000000
      0.16000000	     -3.28470143	     -1.91917141	     -3.36858752	     -1.28807688	      0.87573966	      1.40699559	     30.47205078	     -5.85657095	    -15.02403959	    -21.73226848	     -0.37929964	      6.38269308	     -4.21400126	     13.38949587	      0.23533940	     -0.56371178	     10.06601640	    -24.21663692	     -0.42266005	     12.94154478	     -3.35930085	     -7.39320964	     -4.26593385	      0.72408861	     -9.35092883	     -7.94699040	     -8.42350877	    -14.05681677	     25.67181819	     89.95437384	      0.00000000	      0.00000000	     12.50690716	     12.18705198	     -0.59569473	     46.15881844	     89.95437384	      0.00000000	      0.00000000
